<svg xmlns="http://www.w3.org/2000/svg" xmlns:xlink="http://www.w3.org/1999/xlink" width="700" height="432" class="svglite" viewBox="0 0 525 324"><defs><style type="text/css">.svglite polyline,.svglite rect{fill:none;stroke:#000;stroke-linecap:round;stroke-linejoin:round;stroke-miterlimit:10}.svglite text{white-space:pre}</style></defs><rect width="100%" height="100%" style="stroke:none;fill:#fff"/><defs><clipPath id="cpMC4wMHw1MjUuMDB8MC4wMHwzMjQuMDA="><rect width="525" height="324" x="0" y="0"/></clipPath></defs><g clip-path="url(#cpMC4wMHw1MjUuMDB8MC4wMHwzMjQuMDA=)"><rect width="525" height="324" x="0" y="0" style="stroke-width:1.07;stroke:#fff;fill:#fff"/></g><defs><clipPath id="cpMTI5LjAxfDMyMS41Mnw3MC4wM3wxNjMuMjU="><rect width="192.52" height="93.23" x="129.01" y="70.03"/></clipPath></defs><g clip-path="url(#cpMTI5LjAxfDMyMS41Mnw3MC4wM3wxNjMuMjU=)"><rect width="192.52" height="93.23" x="129.01" y="70.03" style="stroke-width:1.07;stroke:none;fill:#ebebeb"/><polyline points="169.22 163.25 169.22 70.03" style="stroke-width:.53;stroke:#fff;stroke-linecap:butt"/><polyline points="232.15 163.25 232.15 70.03" style="stroke-width:.53;stroke:#fff;stroke-linecap:butt"/><polyline points="295.09 163.25 295.09 70.03" style="stroke-width:.53;stroke:#fff;stroke-linecap:butt"/><polyline points="129.01 154.23 321.52 154.23" style="stroke-width:1.07;stroke:#fff;stroke-linecap:butt"/><polyline points="129.01 139.19 321.52 139.19" style="stroke-width:1.07;stroke:#fff;stroke-linecap:butt"/><polyline points="129.01 124.16 321.52 124.16" style="stroke-width:1.07;stroke:#fff;stroke-linecap:butt"/><polyline points="129.01 109.12 321.52 109.12" style="stroke-width:1.07;stroke:#fff;stroke-linecap:butt"/><polyline points="129.01 94.08 321.52 94.08" style="stroke-width:1.07;stroke:#fff;stroke-linecap:butt"/><polyline points="129.01 79.05 321.52 79.05" style="stroke-width:1.07;stroke:#fff;stroke-linecap:butt"/><polyline points="137.76 163.25 137.76 70.03" style="stroke-width:1.07;stroke:#fff;stroke-linecap:butt"/><polyline points="200.69 163.25 200.69 70.03" style="stroke-width:1.07;stroke:#fff;stroke-linecap:butt"/><polyline points="263.62 163.25 263.62 70.03" style="stroke-width:1.07;stroke:#fff;stroke-linecap:butt"/><rect width="52.58" height="13.53" x="137.76" y="147.46" style="stroke-width:1.07;stroke:none;stroke-linecap:square;stroke-linejoin:miter;fill:#595959"/><rect width="22.82" height="13.53" x="137.76" y="72.28" style="stroke-width:1.07;stroke:none;stroke-linecap:square;stroke-linejoin:miter;fill:#595959"/><rect width="4.01" height="13.53" x="137.76" y="87.32" style="stroke-width:1.07;stroke:none;stroke-linecap:square;stroke-linejoin:miter;fill:#595959"/><rect width="23.06" height="13.53" x="137.76" y="117.39" style="stroke-width:1.07;stroke:none;stroke-linecap:square;stroke-linejoin:miter;fill:#595959"/><rect width="0" height="13.53" x="137.76" y="132.43" style="stroke-width:1.07;stroke:none;stroke-linecap:square;stroke-linejoin:miter;fill:#595959"/><rect width="69.28" height="13.53" x="137.76" y="102.35" style="stroke-width:1.07;stroke:none;stroke-linecap:square;stroke-linejoin:miter;fill:#595959"/></g><defs><clipPath id="cpMTI5LjAxfDMyMS41MnwxODUuNjV8Mjc4Ljg3"><rect width="192.52" height="93.23" x="129.01" y="185.65"/></clipPath></defs><g clip-path="url(#cpMTI5LjAxfDMyMS41MnwxODUuNjV8Mjc4Ljg3)"><rect width="192.52" height="93.23" x="129.01" y="185.65" style="stroke-width:1.07;stroke:none;fill:#ebebeb"/><polyline points="169.22 278.87 169.22 185.65" style="stroke-width:.53;stroke:#fff;stroke-linecap:butt"/><polyline points="232.15 278.87 232.15 185.65" style="stroke-width:.53;stroke:#fff;stroke-linecap:butt"/><polyline points="295.09 278.87 295.09 185.65" style="stroke-width:.53;stroke:#fff;stroke-linecap:butt"/><polyline points="129.01 269.85 321.52 269.85" style="stroke-width:1.07;stroke:#fff;stroke-linecap:butt"/><polyline points="129.01 254.82 321.52 254.82" style="stroke-width:1.07;stroke:#fff;stroke-linecap:butt"/><polyline points="129.01 239.78 321.52 239.78" style="stroke-width:1.07;stroke:#fff;stroke-linecap:butt"/><polyline points="129.01 224.74 321.52 224.74" style="stroke-width:1.07;stroke:#fff;stroke-linecap:butt"/><polyline points="129.01 209.71 321.52 209.71" style="stroke-width:1.07;stroke:#fff;stroke-linecap:butt"/><polyline points="129.01 194.67 321.52 194.67" style="stroke-width:1.07;stroke:#fff;stroke-linecap:butt"/><polyline points="137.76 278.87 137.76 185.65" style="stroke-width:1.07;stroke:#fff;stroke-linecap:butt"/><polyline points="200.69 278.87 200.69 185.65" style="stroke-width:1.07;stroke:#fff;stroke-linecap:butt"/><polyline points="263.62 278.87 263.62 185.65" style="stroke-width:1.07;stroke:#fff;stroke-linecap:butt"/><rect width="0" height="13.53" x="137.76" y="263.09" style="stroke-width:1.07;stroke:none;stroke-linecap:square;stroke-linejoin:miter;fill:#595959"/><rect width="162.47" height="13.53" x="137.76" y="187.9" style="stroke-width:1.07;stroke:none;stroke-linecap:square;stroke-linejoin:miter;fill:#595959"/><rect width="68.46" height="13.53" x="137.76" y="202.94" style="stroke-width:1.07;stroke:none;stroke-linecap:square;stroke-linejoin:miter;fill:#595959"/><rect width="30.78" height="13.53" x="137.76" y="233.01" style="stroke-width:1.07;stroke:none;stroke-linecap:square;stroke-linejoin:miter;fill:#595959"/><rect width="2.4" height="13.53" x="137.76" y="248.05" style="stroke-width:1.07;stroke:none;stroke-linecap:square;stroke-linejoin:miter;fill:#595959"/><rect width="45.86" height="13.53" x="137.76" y="217.98" style="stroke-width:1.07;stroke:none;stroke-linecap:square;stroke-linejoin:miter;fill:#595959"/></g><defs><clipPath id="cpMzI3LjAwfDUxOS41Mnw3MC4wM3wxNjMuMjU="><rect width="192.52" height="93.23" x="327" y="70.03"/></clipPath></defs><g clip-path="url(#cpMzI3LjAwfDUxOS41Mnw3MC4wM3wxNjMuMjU=)"><rect width="192.52" height="93.23" x="327" y="70.03" style="stroke-width:1.07;stroke:none;fill:#ebebeb"/><polyline points="367.22 163.25 367.22 70.03" style="stroke-width:.53;stroke:#fff;stroke-linecap:butt"/><polyline points="430.15 163.25 430.15 70.03" style="stroke-width:.53;stroke:#fff;stroke-linecap:butt"/><polyline points="493.08 163.25 493.08 70.03" style="stroke-width:.53;stroke:#fff;stroke-linecap:butt"/><polyline points="327 154.23 519.52 154.23" style="stroke-width:1.07;stroke:#fff;stroke-linecap:butt"/><polyline points="327 139.19 519.52 139.19" style="stroke-width:1.07;stroke:#fff;stroke-linecap:butt"/><polyline points="327 124.16 519.52 124.16" style="stroke-width:1.07;stroke:#fff;stroke-linecap:butt"/><polyline points="327 109.12 519.52 109.12" style="stroke-width:1.07;stroke:#fff;stroke-linecap:butt"/><polyline points="327 94.08 519.52 94.08" style="stroke-width:1.07;stroke:#fff;stroke-linecap:butt"/><polyline points="327 79.05 519.52 79.05" style="stroke-width:1.07;stroke:#fff;stroke-linecap:butt"/><polyline points="335.75 163.25 335.75 70.03" style="stroke-width:1.07;stroke:#fff;stroke-linecap:butt"/><polyline points="398.69 163.25 398.69 70.03" style="stroke-width:1.07;stroke:#fff;stroke-linecap:butt"/><polyline points="461.62 163.25 461.62 70.03" style="stroke-width:1.07;stroke:#fff;stroke-linecap:butt"/><rect width="0" height="13.53" x="335.75" y="147.46" style="stroke-width:1.07;stroke:none;stroke-linecap:square;stroke-linejoin:miter;fill:#595959"/><rect width="141.32" height="13.53" x="335.75" y="72.28" style="stroke-width:1.07;stroke:none;stroke-linecap:square;stroke-linejoin:miter;fill:#595959"/><rect width="43.92" height="13.53" x="335.75" y="87.32" style="stroke-width:1.07;stroke:none;stroke-linecap:square;stroke-linejoin:miter;fill:#595959"/><rect width="38.32" height="13.53" x="335.75" y="117.39" style="stroke-width:1.07;stroke:none;stroke-linecap:square;stroke-linejoin:miter;fill:#595959"/><rect width="0" height="13.53" x="335.75" y="132.43" style="stroke-width:1.07;stroke:none;stroke-linecap:square;stroke-linejoin:miter;fill:#595959"/><rect width="79.68" height="13.53" x="335.75" y="102.35" style="stroke-width:1.07;stroke:none;stroke-linecap:square;stroke-linejoin:miter;fill:#595959"/></g><defs><clipPath id="cpMzI3LjAwfDUxOS41MnwxODUuNjV8Mjc4Ljg3"><rect width="192.52" height="93.23" x="327" y="185.65"/></clipPath></defs><g clip-path="url(#cpMzI3LjAwfDUxOS41MnwxODUuNjV8Mjc4Ljg3)"><rect width="192.52" height="93.23" x="327" y="185.65" style="stroke-width:1.07;stroke:none;fill:#ebebeb"/><polyline points="367.22 278.87 367.22 185.65" style="stroke-width:.53;stroke:#fff;stroke-linecap:butt"/><polyline points="430.15 278.87 430.15 185.65" style="stroke-width:.53;stroke:#fff;stroke-linecap:butt"/><polyline points="493.08 278.87 493.08 185.65" style="stroke-width:.53;stroke:#fff;stroke-linecap:butt"/><polyline points="327 269.85 519.52 269.85" style="stroke-width:1.07;stroke:#fff;stroke-linecap:butt"/><polyline points="327 254.82 519.52 254.82" style="stroke-width:1.07;stroke:#fff;stroke-linecap:butt"/><polyline points="327 239.78 519.52 239.78" style="stroke-width:1.07;stroke:#fff;stroke-linecap:butt"/><polyline points="327 224.74 519.52 224.74" style="stroke-width:1.07;stroke:#fff;stroke-linecap:butt"/><polyline points="327 209.71 519.52 209.71" style="stroke-width:1.07;stroke:#fff;stroke-linecap:butt"/><polyline points="327 194.67 519.52 194.67" style="stroke-width:1.07;stroke:#fff;stroke-linecap:butt"/><polyline points="335.75 278.87 335.75 185.65" style="stroke-width:1.07;stroke:#fff;stroke-linecap:butt"/><polyline points="398.69 278.87 398.69 185.65" style="stroke-width:1.07;stroke:#fff;stroke-linecap:butt"/><polyline points="461.62 278.87 461.62 185.65" style="stroke-width:1.07;stroke:#fff;stroke-linecap:butt"/><rect width="0" height="13.53" x="335.75" y="263.09" style="stroke-width:1.07;stroke:none;stroke-linecap:square;stroke-linejoin:miter;fill:#595959"/><rect width="175.02" height="13.53" x="335.75" y="187.9" style="stroke-width:1.07;stroke:none;stroke-linecap:square;stroke-linejoin:miter;fill:#595959"/><rect width="30.42" height="13.53" x="335.75" y="202.94" style="stroke-width:1.07;stroke:none;stroke-linecap:square;stroke-linejoin:miter;fill:#595959"/><rect width="5.3" height="13.53" x="335.75" y="233.01" style="stroke-width:1.07;stroke:none;stroke-linecap:square;stroke-linejoin:miter;fill:#595959"/><rect width="0" height="13.53" x="335.75" y="248.05" style="stroke-width:1.07;stroke:none;stroke-linecap:square;stroke-linejoin:miter;fill:#595959"/><rect width="19.37" height="13.53" x="335.75" y="217.98" style="stroke-width:1.07;stroke:none;stroke-linecap:square;stroke-linejoin:miter;fill:#595959"/></g><defs><clipPath id="cpMTI5LjAxfDMyMS41MnwxNjguNzN8MTg1LjY1"><rect width="192.52" height="16.92" x="129.01" y="168.73"/></clipPath></defs><g clip-path="url(#cpMTI5LjAxfDMyMS41MnwxNjguNzN8MTg1LjY1)"><rect width="192.52" height="16.92" x="129.01" y="168.73" style="stroke-width:1.07;stroke:none;fill:#d9d9d9"/><text x="225.26" y="180.34" lengthAdjust="spacingAndGlyphs" text-anchor="middle" style="font-size:8.8px;fill:#1a1a1a;font-family:&quot;Arial&quot;" textLength="129">Some college/associate’s degree</text></g><defs><clipPath id="cpMzI3LjAwfDUxOS41MnwxNjguNzN8MTg1LjY1"><rect width="192.52" height="16.92" x="327" y="168.73"/></clipPath></defs><g clip-path="url(#cpMzI3LjAwfDUxOS41MnwxNjguNzN8MTg1LjY1)"><rect width="192.52" height="16.92" x="327" y="168.73" style="stroke-width:1.07;stroke:none;fill:#d9d9d9"/><text x="423.26" y="180.34" lengthAdjust="spacingAndGlyphs" text-anchor="middle" style="font-size:8.8px;fill:#1a1a1a;font-family:&quot;Arial&quot;" textLength="108.3">Bachelor’s degree or higher</text></g><defs><clipPath id="cpMTI5LjAxfDMyMS41Mnw1My4xMXw3MC4wMw=="><rect width="192.52" height="16.92" x="129.01" y="53.11"/></clipPath></defs><g clip-path="url(#cpMTI5LjAxfDMyMS41Mnw1My4xMXw3MC4wMw==)"><rect width="192.52" height="16.92" x="129.01" y="53.11" style="stroke-width:1.07;stroke:none;fill:#d9d9d9"/><text x="225.26" y="64.72" lengthAdjust="spacingAndGlyphs" text-anchor="middle" style="font-size:8.8px;fill:#1a1a1a;font-family:&quot;Arial&quot;" textLength="85.15">Less than high school</text></g><defs><clipPath id="cpMzI3LjAwfDUxOS41Mnw1My4xMXw3MC4wMw=="><rect width="192.52" height="16.92" x="327" y="53.11"/></clipPath></defs><g clip-path="url(#cpMzI3LjAwfDUxOS41Mnw1My4xMXw3MC4wMw==)"><rect width="192.52" height="16.92" x="327" y="53.11" style="stroke-width:1.07;stroke:none;fill:#d9d9d9"/><text x="423.26" y="64.72" lengthAdjust="spacingAndGlyphs" text-anchor="middle" style="font-size:8.8px;fill:#1a1a1a;font-family:&quot;Arial&quot;" textLength="77.77">High school or GED</text></g><g clip-path="url(#cpMC4wMHw1MjUuMDB8MC4wMHwzMjQuMDA=)"><polyline points="137.76 281.61 137.76 278.87" style="stroke-width:1.07;stroke:#333;stroke-linecap:butt"/><polyline points="200.69 281.61 200.69 278.87" style="stroke-width:1.07;stroke:#333;stroke-linecap:butt"/><polyline points="263.62 281.61 263.62 278.87" style="stroke-width:1.07;stroke:#333;stroke-linecap:butt"/><text x="137.76" y="290.11" lengthAdjust="spacingAndGlyphs" text-anchor="middle" style="font-size:8.8px;fill:#4d4d4d;font-family:&quot;Arial&quot;" textLength="4.9">0</text><text x="200.69" y="290.11" lengthAdjust="spacingAndGlyphs" text-anchor="middle" style="font-size:8.8px;fill:#4d4d4d;font-family:&quot;Arial&quot;" textLength="20.56">100K</text><text x="263.62" y="290.11" lengthAdjust="spacingAndGlyphs" text-anchor="middle" style="font-size:8.8px;fill:#4d4d4d;font-family:&quot;Arial&quot;" textLength="20.56">200K</text><polyline points="335.75 281.61 335.75 278.87" style="stroke-width:1.07;stroke:#333;stroke-linecap:butt"/><polyline points="398.69 281.61 398.69 278.87" style="stroke-width:1.07;stroke:#333;stroke-linecap:butt"/><polyline points="461.62 281.61 461.62 278.87" style="stroke-width:1.07;stroke:#333;stroke-linecap:butt"/><text x="335.75" y="290.11" lengthAdjust="spacingAndGlyphs" text-anchor="middle" style="font-size:8.8px;fill:#4d4d4d;font-family:&quot;Arial&quot;" textLength="4.9">0</text><text x="398.69" y="290.11" lengthAdjust="spacingAndGlyphs" text-anchor="middle" style="font-size:8.8px;fill:#4d4d4d;font-family:&quot;Arial&quot;" textLength="20.56">100K</text><text x="461.62" y="290.11" lengthAdjust="spacingAndGlyphs" text-anchor="middle" style="font-size:8.8px;fill:#4d4d4d;font-family:&quot;Arial&quot;" textLength="20.56">200K</text><text x="124.07" y="157.38" lengthAdjust="spacingAndGlyphs" text-anchor="end" style="font-size:8.8px;fill:#4d4d4d;font-family:&quot;Arial&quot;" textLength="53.33">Did not report</text><text x="124.07" y="142.34" lengthAdjust="spacingAndGlyphs" text-anchor="end" style="font-size:8.8px;fill:#4d4d4d;font-family:&quot;Arial&quot;" textLength="105.66">Payment is/will be deferred</text><text x="124.07" y="127.31" lengthAdjust="spacingAndGlyphs" text-anchor="end" style="font-size:8.8px;fill:#4d4d4d;font-family:&quot;Arial&quot;" textLength="70.46">No at all confident</text><text x="124.07" y="112.27" lengthAdjust="spacingAndGlyphs" text-anchor="end" style="font-size:8.8px;fill:#4d4d4d;font-family:&quot;Arial&quot;" textLength="66.54">Slightly confident</text><text x="124.07" y="97.23" lengthAdjust="spacingAndGlyphs" text-anchor="end" style="font-size:8.8px;fill:#4d4d4d;font-family:&quot;Arial&quot;" textLength="81.71">Moderately confident</text><text x="124.07" y="82.2" lengthAdjust="spacingAndGlyphs" text-anchor="end" style="font-size:8.8px;fill:#4d4d4d;font-family:&quot;Arial&quot;" textLength="62.62">Highly confident</text><polyline points="126.27 154.23 129.01 154.23" style="stroke-width:1.07;stroke:#333;stroke-linecap:butt"/><polyline points="126.27 139.19 129.01 139.19" style="stroke-width:1.07;stroke:#333;stroke-linecap:butt"/><polyline points="126.27 124.16 129.01 124.16" style="stroke-width:1.07;stroke:#333;stroke-linecap:butt"/><polyline points="126.27 109.12 129.01 109.12" style="stroke-width:1.07;stroke:#333;stroke-linecap:butt"/><polyline points="126.27 94.08 129.01 94.08" style="stroke-width:1.07;stroke:#333;stroke-linecap:butt"/><polyline points="126.27 79.05 129.01 79.05" style="stroke-width:1.07;stroke:#333;stroke-linecap:butt"/><text x="124.07" y="273" lengthAdjust="spacingAndGlyphs" text-anchor="end" style="font-size:8.8px;fill:#4d4d4d;font-family:&quot;Arial&quot;" textLength="53.33">Did not report</text><text x="124.07" y="257.97" lengthAdjust="spacingAndGlyphs" text-anchor="end" style="font-size:8.8px;fill:#4d4d4d;font-family:&quot;Arial&quot;" textLength="105.66">Payment is/will be deferred</text><text x="124.07" y="242.93" lengthAdjust="spacingAndGlyphs" text-anchor="end" style="font-size:8.8px;fill:#4d4d4d;font-family:&quot;Arial&quot;" textLength="70.46">No at all confident</text><text x="124.07" y="227.89" lengthAdjust="spacingAndGlyphs" text-anchor="end" style="font-size:8.8px;fill:#4d4d4d;font-family:&quot;Arial&quot;" textLength="66.54">Slightly confident</text><text x="124.07" y="212.86" lengthAdjust="spacingAndGlyphs" text-anchor="end" style="font-size:8.8px;fill:#4d4d4d;font-family:&quot;Arial&quot;" textLength="81.71">Moderately confident</text><text x="124.07" y="197.82" lengthAdjust="spacingAndGlyphs" text-anchor="end" style="font-size:8.8px;fill:#4d4d4d;font-family:&quot;Arial&quot;" textLength="62.62">Highly confident</text><polyline points="126.27 269.85 129.01 269.85" style="stroke-width:1.07;stroke:#333;stroke-linecap:butt"/><polyline points="126.27 254.82 129.01 254.82" style="stroke-width:1.07;stroke:#333;stroke-linecap:butt"/><polyline points="126.27 239.78 129.01 239.78" style="stroke-width:1.07;stroke:#333;stroke-linecap:butt"/><polyline points="126.27 224.74 129.01 224.74" style="stroke-width:1.07;stroke:#333;stroke-linecap:butt"/><polyline points="126.27 209.71 129.01 209.71" style="stroke-width:1.07;stroke:#333;stroke-linecap:butt"/><polyline points="126.27 194.67 129.01 194.67" style="stroke-width:1.07;stroke:#333;stroke-linecap:butt"/><text x="5.48" y="45.31" style="font-size:11px;font-family:&quot;Arial&quot;" lengthAdjust="spacingAndGlyphs" textLength="118.04">subset by NC Education</text><text x="5.48" y="14.93" style="font-size:13.2px;font-family:&quot;Arial&quot;" lengthAdjust="spacingAndGlyphs" textLength="481.24">Housing Table 2b. Confidence in Ability to Make Next Month’s Payment for Renter-</text><text x="5.48" y="29.18" style="font-size:13.2px;font-family:&quot;Arial&quot;" lengthAdjust="spacingAndGlyphs" textLength="380.51">Occupied Housing Units, by Select Characteristics: United States</text><text x="519.52" y="316.67" lengthAdjust="spacingAndGlyphs" text-anchor="end" style="font-size:8.8px;font-family:&quot;Arial&quot;" textLength="313.11">Source: U.S. Census Bureau Household Pulse Survey - housing2b_week45.xlsx</text></g></svg>