<svg xmlns="http://www.w3.org/2000/svg" xmlns:xlink="http://www.w3.org/1999/xlink" width="700" height="432" class="svglite" viewBox="0 0 525 324"><defs><style type="text/css">.svglite polyline,.svglite rect{fill:none;stroke:#000;stroke-linecap:round;stroke-linejoin:round;stroke-miterlimit:10}.svglite text{white-space:pre}</style></defs><rect width="100%" height="100%" style="stroke:none;fill:#fff"/><defs><clipPath id="cpMC4wMHw1MjUuMDB8MC4wMHwzMjQuMDA="><rect width="525" height="324" x="0" y="0"/></clipPath></defs><g clip-path="url(#cpMC4wMHw1MjUuMDB8MC4wMHwzMjQuMDA=)"><rect width="525" height="324" x="0" y="0" style="stroke-width:1.07;stroke:#fff;fill:#fff"/></g><defs><clipPath id="cpMTI5LjAxfDMyMS41Mnw3MC4wM3wxNjMuMjU="><rect width="192.52" height="93.23" x="129.01" y="70.03"/></clipPath></defs><g clip-path="url(#cpMTI5LjAxfDMyMS41Mnw3MC4wM3wxNjMuMjU=)"><rect width="192.52" height="93.23" x="129.01" y="70.03" style="stroke-width:1.07;stroke:none;fill:#ebebeb"/><polyline points="160.75 163.25 160.75 70.03" style="stroke-width:.53;stroke:#fff;stroke-linecap:butt"/><polyline points="206.74 163.25 206.74 70.03" style="stroke-width:.53;stroke:#fff;stroke-linecap:butt"/><polyline points="252.73 163.25 252.73 70.03" style="stroke-width:.53;stroke:#fff;stroke-linecap:butt"/><polyline points="298.71 163.25 298.71 70.03" style="stroke-width:.53;stroke:#fff;stroke-linecap:butt"/><polyline points="129.01 154.23 321.52 154.23" style="stroke-width:1.07;stroke:#fff;stroke-linecap:butt"/><polyline points="129.01 139.19 321.52 139.19" style="stroke-width:1.07;stroke:#fff;stroke-linecap:butt"/><polyline points="129.01 124.16 321.52 124.16" style="stroke-width:1.07;stroke:#fff;stroke-linecap:butt"/><polyline points="129.01 109.12 321.52 109.12" style="stroke-width:1.07;stroke:#fff;stroke-linecap:butt"/><polyline points="129.01 94.08 321.52 94.08" style="stroke-width:1.07;stroke:#fff;stroke-linecap:butt"/><polyline points="129.01 79.05 321.52 79.05" style="stroke-width:1.07;stroke:#fff;stroke-linecap:butt"/><polyline points="137.76 163.25 137.76 70.03" style="stroke-width:1.07;stroke:#fff;stroke-linecap:butt"/><polyline points="183.74 163.25 183.74 70.03" style="stroke-width:1.07;stroke:#fff;stroke-linecap:butt"/><polyline points="229.73 163.25 229.73 70.03" style="stroke-width:1.07;stroke:#fff;stroke-linecap:butt"/><polyline points="275.72 163.25 275.72 70.03" style="stroke-width:1.07;stroke:#fff;stroke-linecap:butt"/><rect width="0" height="13.53" x="137.76" y="147.46" style="stroke-width:1.07;stroke:none;stroke-linecap:square;stroke-linejoin:miter;fill:#595959"/><rect width="45.36" height="13.53" x="137.76" y="72.28" style="stroke-width:1.07;stroke:none;stroke-linecap:square;stroke-linejoin:miter;fill:#595959"/><rect width="30.99" height="13.53" x="137.76" y="87.32" style="stroke-width:1.07;stroke:none;stroke-linecap:square;stroke-linejoin:miter;fill:#595959"/><rect width="25.97" height="13.53" x="137.76" y="117.39" style="stroke-width:1.07;stroke:none;stroke-linecap:square;stroke-linejoin:miter;fill:#595959"/><rect width="0" height="13.53" x="137.76" y="132.43" style="stroke-width:1.07;stroke:none;stroke-linecap:square;stroke-linejoin:miter;fill:#595959"/><rect width="33.37" height="13.53" x="137.76" y="102.35" style="stroke-width:1.07;stroke:none;stroke-linecap:square;stroke-linejoin:miter;fill:#595959"/></g><defs><clipPath id="cpMTI5LjAxfDMyMS41MnwxODUuNjV8Mjc4Ljg3"><rect width="192.52" height="93.23" x="129.01" y="185.65"/></clipPath></defs><g clip-path="url(#cpMTI5LjAxfDMyMS41MnwxODUuNjV8Mjc4Ljg3)"><rect width="192.52" height="93.23" x="129.01" y="185.65" style="stroke-width:1.07;stroke:none;fill:#ebebeb"/><polyline points="160.75 278.87 160.75 185.65" style="stroke-width:.53;stroke:#fff;stroke-linecap:butt"/><polyline points="206.74 278.87 206.74 185.65" style="stroke-width:.53;stroke:#fff;stroke-linecap:butt"/><polyline points="252.73 278.87 252.73 185.65" style="stroke-width:.53;stroke:#fff;stroke-linecap:butt"/><polyline points="298.71 278.87 298.71 185.65" style="stroke-width:.53;stroke:#fff;stroke-linecap:butt"/><polyline points="129.01 269.85 321.52 269.85" style="stroke-width:1.07;stroke:#fff;stroke-linecap:butt"/><polyline points="129.01 254.82 321.52 254.82" style="stroke-width:1.07;stroke:#fff;stroke-linecap:butt"/><polyline points="129.01 239.78 321.52 239.78" style="stroke-width:1.07;stroke:#fff;stroke-linecap:butt"/><polyline points="129.01 224.74 321.52 224.74" style="stroke-width:1.07;stroke:#fff;stroke-linecap:butt"/><polyline points="129.01 209.71 321.52 209.71" style="stroke-width:1.07;stroke:#fff;stroke-linecap:butt"/><polyline points="129.01 194.67 321.52 194.67" style="stroke-width:1.07;stroke:#fff;stroke-linecap:butt"/><polyline points="137.76 278.87 137.76 185.65" style="stroke-width:1.07;stroke:#fff;stroke-linecap:butt"/><polyline points="183.74 278.87 183.74 185.65" style="stroke-width:1.07;stroke:#fff;stroke-linecap:butt"/><polyline points="229.73 278.87 229.73 185.65" style="stroke-width:1.07;stroke:#fff;stroke-linecap:butt"/><polyline points="275.72 278.87 275.72 185.65" style="stroke-width:1.07;stroke:#fff;stroke-linecap:butt"/><rect width="2.88" height="13.53" x="137.76" y="263.09" style="stroke-width:1.07;stroke:none;stroke-linecap:square;stroke-linejoin:miter;fill:#595959"/><rect width="175.02" height="13.53" x="137.76" y="187.9" style="stroke-width:1.07;stroke:none;stroke-linecap:square;stroke-linejoin:miter;fill:#595959"/><rect width="85" height="13.53" x="137.76" y="202.94" style="stroke-width:1.07;stroke:none;stroke-linecap:square;stroke-linejoin:miter;fill:#595959"/><rect width="11.07" height="13.53" x="137.76" y="233.01" style="stroke-width:1.07;stroke:none;stroke-linecap:square;stroke-linejoin:miter;fill:#595959"/><rect width="1.93" height="13.53" x="137.76" y="248.05" style="stroke-width:1.07;stroke:none;stroke-linecap:square;stroke-linejoin:miter;fill:#595959"/><rect width="58.99" height="13.53" x="137.76" y="217.98" style="stroke-width:1.07;stroke:none;stroke-linecap:square;stroke-linejoin:miter;fill:#595959"/></g><defs><clipPath id="cpMzI3LjAwfDUxOS41Mnw3MC4wM3wxNjMuMjU="><rect width="192.52" height="93.23" x="327" y="70.03"/></clipPath></defs><g clip-path="url(#cpMzI3LjAwfDUxOS41Mnw3MC4wM3wxNjMuMjU=)"><rect width="192.52" height="93.23" x="327" y="70.03" style="stroke-width:1.07;stroke:none;fill:#ebebeb"/><polyline points="358.75 163.25 358.75 70.03" style="stroke-width:.53;stroke:#fff;stroke-linecap:butt"/><polyline points="404.73 163.25 404.73 70.03" style="stroke-width:.53;stroke:#fff;stroke-linecap:butt"/><polyline points="450.72 163.25 450.72 70.03" style="stroke-width:.53;stroke:#fff;stroke-linecap:butt"/><polyline points="496.71 163.25 496.71 70.03" style="stroke-width:.53;stroke:#fff;stroke-linecap:butt"/><polyline points="327 154.23 519.52 154.23" style="stroke-width:1.07;stroke:#fff;stroke-linecap:butt"/><polyline points="327 139.19 519.52 139.19" style="stroke-width:1.07;stroke:#fff;stroke-linecap:butt"/><polyline points="327 124.16 519.52 124.16" style="stroke-width:1.07;stroke:#fff;stroke-linecap:butt"/><polyline points="327 109.12 519.52 109.12" style="stroke-width:1.07;stroke:#fff;stroke-linecap:butt"/><polyline points="327 94.08 519.52 94.08" style="stroke-width:1.07;stroke:#fff;stroke-linecap:butt"/><polyline points="327 79.05 519.52 79.05" style="stroke-width:1.07;stroke:#fff;stroke-linecap:butt"/><polyline points="335.75 163.25 335.75 70.03" style="stroke-width:1.07;stroke:#fff;stroke-linecap:butt"/><polyline points="381.74 163.25 381.74 70.03" style="stroke-width:1.07;stroke:#fff;stroke-linecap:butt"/><polyline points="427.73 163.25 427.73 70.03" style="stroke-width:1.07;stroke:#fff;stroke-linecap:butt"/><polyline points="473.72 163.25 473.72 70.03" style="stroke-width:1.07;stroke:#fff;stroke-linecap:butt"/><rect width="0" height="13.53" x="335.75" y="147.46" style="stroke-width:1.07;stroke:none;stroke-linecap:square;stroke-linejoin:miter;fill:#595959"/><rect width="107.2" height="13.53" x="335.75" y="72.28" style="stroke-width:1.07;stroke:none;stroke-linecap:square;stroke-linejoin:miter;fill:#595959"/><rect width="59" height="13.53" x="335.75" y="87.32" style="stroke-width:1.07;stroke:none;stroke-linecap:square;stroke-linejoin:miter;fill:#595959"/><rect width="66.94" height="13.53" x="335.75" y="117.39" style="stroke-width:1.07;stroke:none;stroke-linecap:square;stroke-linejoin:miter;fill:#595959"/><rect width="22.57" height="13.53" x="335.75" y="132.43" style="stroke-width:1.07;stroke:none;stroke-linecap:square;stroke-linejoin:miter;fill:#595959"/><rect width="113.09" height="13.53" x="335.75" y="102.35" style="stroke-width:1.07;stroke:none;stroke-linecap:square;stroke-linejoin:miter;fill:#595959"/></g><defs><clipPath id="cpMzI3LjAwfDUxOS41MnwxODUuNjV8Mjc4Ljg3"><rect width="192.52" height="93.23" x="327" y="185.65"/></clipPath></defs><g clip-path="url(#cpMzI3LjAwfDUxOS41MnwxODUuNjV8Mjc4Ljg3)"><rect width="192.52" height="93.23" x="327" y="185.65" style="stroke-width:1.07;stroke:none;fill:#ebebeb"/><polyline points="358.75 278.87 358.75 185.65" style="stroke-width:.53;stroke:#fff;stroke-linecap:butt"/><polyline points="404.73 278.87 404.73 185.65" style="stroke-width:.53;stroke:#fff;stroke-linecap:butt"/><polyline points="450.72 278.87 450.72 185.65" style="stroke-width:.53;stroke:#fff;stroke-linecap:butt"/><polyline points="496.71 278.87 496.71 185.65" style="stroke-width:.53;stroke:#fff;stroke-linecap:butt"/><polyline points="327 269.85 519.52 269.85" style="stroke-width:1.07;stroke:#fff;stroke-linecap:butt"/><polyline points="327 254.82 519.52 254.82" style="stroke-width:1.07;stroke:#fff;stroke-linecap:butt"/><polyline points="327 239.78 519.52 239.78" style="stroke-width:1.07;stroke:#fff;stroke-linecap:butt"/><polyline points="327 224.74 519.52 224.74" style="stroke-width:1.07;stroke:#fff;stroke-linecap:butt"/><polyline points="327 209.71 519.52 209.71" style="stroke-width:1.07;stroke:#fff;stroke-linecap:butt"/><polyline points="327 194.67 519.52 194.67" style="stroke-width:1.07;stroke:#fff;stroke-linecap:butt"/><polyline points="335.75 278.87 335.75 185.65" style="stroke-width:1.07;stroke:#fff;stroke-linecap:butt"/><polyline points="381.74 278.87 381.74 185.65" style="stroke-width:1.07;stroke:#fff;stroke-linecap:butt"/><polyline points="427.73 278.87 427.73 185.65" style="stroke-width:1.07;stroke:#fff;stroke-linecap:butt"/><polyline points="473.72 278.87 473.72 185.65" style="stroke-width:1.07;stroke:#fff;stroke-linecap:butt"/><rect width="5.82" height="13.53" x="335.75" y="263.09" style="stroke-width:1.07;stroke:none;stroke-linecap:square;stroke-linejoin:miter;fill:#595959"/><rect width="173.16" height="13.53" x="335.75" y="187.9" style="stroke-width:1.07;stroke:none;stroke-linecap:square;stroke-linejoin:miter;fill:#595959"/><rect width="40.63" height="13.53" x="335.75" y="202.94" style="stroke-width:1.07;stroke:none;stroke-linecap:square;stroke-linejoin:miter;fill:#595959"/><rect width="1.91" height="13.53" x="335.75" y="233.01" style="stroke-width:1.07;stroke:none;stroke-linecap:square;stroke-linejoin:miter;fill:#595959"/><rect width="0" height="13.53" x="335.75" y="248.05" style="stroke-width:1.07;stroke:none;stroke-linecap:square;stroke-linejoin:miter;fill:#595959"/><rect width="18.52" height="13.53" x="335.75" y="217.98" style="stroke-width:1.07;stroke:none;stroke-linecap:square;stroke-linejoin:miter;fill:#595959"/></g><defs><clipPath id="cpMTI5LjAxfDMyMS41MnwxNjguNzN8MTg1LjY1"><rect width="192.52" height="16.92" x="129.01" y="168.73"/></clipPath></defs><g clip-path="url(#cpMTI5LjAxfDMyMS41MnwxNjguNzN8MTg1LjY1)"><rect width="192.52" height="16.92" x="129.01" y="168.73" style="stroke-width:1.07;stroke:none;fill:#d9d9d9"/><text x="225.26" y="180.34" lengthAdjust="spacingAndGlyphs" text-anchor="middle" style="font-size:8.8px;fill:#1a1a1a;font-family:&quot;Arial&quot;" textLength="129">Some college/associate’s degree</text></g><defs><clipPath id="cpMzI3LjAwfDUxOS41MnwxNjguNzN8MTg1LjY1"><rect width="192.52" height="16.92" x="327" y="168.73"/></clipPath></defs><g clip-path="url(#cpMzI3LjAwfDUxOS41MnwxNjguNzN8MTg1LjY1)"><rect width="192.52" height="16.92" x="327" y="168.73" style="stroke-width:1.07;stroke:none;fill:#d9d9d9"/><text x="423.26" y="180.34" lengthAdjust="spacingAndGlyphs" text-anchor="middle" style="font-size:8.8px;fill:#1a1a1a;font-family:&quot;Arial&quot;" textLength="108.3">Bachelor’s degree or higher</text></g><defs><clipPath id="cpMTI5LjAxfDMyMS41Mnw1My4xMXw3MC4wMw=="><rect width="192.52" height="16.92" x="129.01" y="53.11"/></clipPath></defs><g clip-path="url(#cpMTI5LjAxfDMyMS41Mnw1My4xMXw3MC4wMw==)"><rect width="192.52" height="16.92" x="129.01" y="53.11" style="stroke-width:1.07;stroke:none;fill:#d9d9d9"/><text x="225.26" y="64.72" lengthAdjust="spacingAndGlyphs" text-anchor="middle" style="font-size:8.8px;fill:#1a1a1a;font-family:&quot;Arial&quot;" textLength="85.15">Less than high school</text></g><defs><clipPath id="cpMzI3LjAwfDUxOS41Mnw1My4xMXw3MC4wMw=="><rect width="192.52" height="16.92" x="327" y="53.11"/></clipPath></defs><g clip-path="url(#cpMzI3LjAwfDUxOS41Mnw1My4xMXw3MC4wMw==)"><rect width="192.52" height="16.92" x="327" y="53.11" style="stroke-width:1.07;stroke:none;fill:#d9d9d9"/><text x="423.26" y="64.72" lengthAdjust="spacingAndGlyphs" text-anchor="middle" style="font-size:8.8px;fill:#1a1a1a;font-family:&quot;Arial&quot;" textLength="77.77">High school or GED</text></g><g clip-path="url(#cpMC4wMHw1MjUuMDB8MC4wMHwzMjQuMDA=)"><polyline points="137.76 281.61 137.76 278.87" style="stroke-width:1.07;stroke:#333;stroke-linecap:butt"/><polyline points="183.74 281.61 183.74 278.87" style="stroke-width:1.07;stroke:#333;stroke-linecap:butt"/><polyline points="229.73 281.61 229.73 278.87" style="stroke-width:1.07;stroke:#333;stroke-linecap:butt"/><polyline points="275.72 281.61 275.72 278.87" style="stroke-width:1.07;stroke:#333;stroke-linecap:butt"/><text x="137.76" y="290.11" lengthAdjust="spacingAndGlyphs" text-anchor="middle" style="font-size:8.8px;fill:#4d4d4d;font-family:&quot;Arial&quot;" textLength="4.9">0</text><text x="183.74" y="290.11" lengthAdjust="spacingAndGlyphs" text-anchor="middle" style="font-size:8.8px;fill:#4d4d4d;font-family:&quot;Arial&quot;" textLength="15.66">30K</text><text x="229.73" y="290.11" lengthAdjust="spacingAndGlyphs" text-anchor="middle" style="font-size:8.8px;fill:#4d4d4d;font-family:&quot;Arial&quot;" textLength="15.66">60K</text><text x="275.72" y="290.11" lengthAdjust="spacingAndGlyphs" text-anchor="middle" style="font-size:8.8px;fill:#4d4d4d;font-family:&quot;Arial&quot;" textLength="15.66">90K</text><polyline points="335.75 281.61 335.75 278.87" style="stroke-width:1.07;stroke:#333;stroke-linecap:butt"/><polyline points="381.74 281.61 381.74 278.87" style="stroke-width:1.07;stroke:#333;stroke-linecap:butt"/><polyline points="427.73 281.61 427.73 278.87" style="stroke-width:1.07;stroke:#333;stroke-linecap:butt"/><polyline points="473.72 281.61 473.72 278.87" style="stroke-width:1.07;stroke:#333;stroke-linecap:butt"/><text x="335.75" y="290.11" lengthAdjust="spacingAndGlyphs" text-anchor="middle" style="font-size:8.8px;fill:#4d4d4d;font-family:&quot;Arial&quot;" textLength="4.9">0</text><text x="381.74" y="290.11" lengthAdjust="spacingAndGlyphs" text-anchor="middle" style="font-size:8.8px;fill:#4d4d4d;font-family:&quot;Arial&quot;" textLength="15.66">30K</text><text x="427.73" y="290.11" lengthAdjust="spacingAndGlyphs" text-anchor="middle" style="font-size:8.8px;fill:#4d4d4d;font-family:&quot;Arial&quot;" textLength="15.66">60K</text><text x="473.72" y="290.11" lengthAdjust="spacingAndGlyphs" text-anchor="middle" style="font-size:8.8px;fill:#4d4d4d;font-family:&quot;Arial&quot;" textLength="15.66">90K</text><text x="124.07" y="157.38" lengthAdjust="spacingAndGlyphs" text-anchor="end" style="font-size:8.8px;fill:#4d4d4d;font-family:&quot;Arial&quot;" textLength="53.33">Did not report</text><text x="124.07" y="142.34" lengthAdjust="spacingAndGlyphs" text-anchor="end" style="font-size:8.8px;fill:#4d4d4d;font-family:&quot;Arial&quot;" textLength="105.66">Payment is/will be deferred</text><text x="124.07" y="127.31" lengthAdjust="spacingAndGlyphs" text-anchor="end" style="font-size:8.8px;fill:#4d4d4d;font-family:&quot;Arial&quot;" textLength="70.46">No at all confident</text><text x="124.07" y="112.27" lengthAdjust="spacingAndGlyphs" text-anchor="end" style="font-size:8.8px;fill:#4d4d4d;font-family:&quot;Arial&quot;" textLength="66.54">Slightly confident</text><text x="124.07" y="97.23" lengthAdjust="spacingAndGlyphs" text-anchor="end" style="font-size:8.8px;fill:#4d4d4d;font-family:&quot;Arial&quot;" textLength="81.71">Moderately confident</text><text x="124.07" y="82.2" lengthAdjust="spacingAndGlyphs" text-anchor="end" style="font-size:8.8px;fill:#4d4d4d;font-family:&quot;Arial&quot;" textLength="62.62">Highly confident</text><polyline points="126.27 154.23 129.01 154.23" style="stroke-width:1.07;stroke:#333;stroke-linecap:butt"/><polyline points="126.27 139.19 129.01 139.19" style="stroke-width:1.07;stroke:#333;stroke-linecap:butt"/><polyline points="126.27 124.16 129.01 124.16" style="stroke-width:1.07;stroke:#333;stroke-linecap:butt"/><polyline points="126.27 109.12 129.01 109.12" style="stroke-width:1.07;stroke:#333;stroke-linecap:butt"/><polyline points="126.27 94.08 129.01 94.08" style="stroke-width:1.07;stroke:#333;stroke-linecap:butt"/><polyline points="126.27 79.05 129.01 79.05" style="stroke-width:1.07;stroke:#333;stroke-linecap:butt"/><text x="124.07" y="273" lengthAdjust="spacingAndGlyphs" text-anchor="end" style="font-size:8.8px;fill:#4d4d4d;font-family:&quot;Arial&quot;" textLength="53.33">Did not report</text><text x="124.07" y="257.97" lengthAdjust="spacingAndGlyphs" text-anchor="end" style="font-size:8.8px;fill:#4d4d4d;font-family:&quot;Arial&quot;" textLength="105.66">Payment is/will be deferred</text><text x="124.07" y="242.93" lengthAdjust="spacingAndGlyphs" text-anchor="end" style="font-size:8.8px;fill:#4d4d4d;font-family:&quot;Arial&quot;" textLength="70.46">No at all confident</text><text x="124.07" y="227.89" lengthAdjust="spacingAndGlyphs" text-anchor="end" style="font-size:8.8px;fill:#4d4d4d;font-family:&quot;Arial&quot;" textLength="66.54">Slightly confident</text><text x="124.07" y="212.86" lengthAdjust="spacingAndGlyphs" text-anchor="end" style="font-size:8.8px;fill:#4d4d4d;font-family:&quot;Arial&quot;" textLength="81.71">Moderately confident</text><text x="124.07" y="197.82" lengthAdjust="spacingAndGlyphs" text-anchor="end" style="font-size:8.8px;fill:#4d4d4d;font-family:&quot;Arial&quot;" textLength="62.62">Highly confident</text><polyline points="126.27 269.85 129.01 269.85" style="stroke-width:1.07;stroke:#333;stroke-linecap:butt"/><polyline points="126.27 254.82 129.01 254.82" style="stroke-width:1.07;stroke:#333;stroke-linecap:butt"/><polyline points="126.27 239.78 129.01 239.78" style="stroke-width:1.07;stroke:#333;stroke-linecap:butt"/><polyline points="126.27 224.74 129.01 224.74" style="stroke-width:1.07;stroke:#333;stroke-linecap:butt"/><polyline points="126.27 209.71 129.01 209.71" style="stroke-width:1.07;stroke:#333;stroke-linecap:butt"/><polyline points="126.27 194.67 129.01 194.67" style="stroke-width:1.07;stroke:#333;stroke-linecap:butt"/><text x="5.48" y="45.31" style="font-size:11px;font-family:&quot;Arial&quot;" lengthAdjust="spacingAndGlyphs" textLength="117.44">subset by SC Education</text><text x="5.48" y="14.93" style="font-size:13.2px;font-family:&quot;Arial&quot;" lengthAdjust="spacingAndGlyphs" textLength="481.24">Housing Table 2b. Confidence in Ability to Make Next Month’s Payment for Renter-</text><text x="5.48" y="29.18" style="font-size:13.2px;font-family:&quot;Arial&quot;" lengthAdjust="spacingAndGlyphs" textLength="380.51">Occupied Housing Units, by Select Characteristics: United States</text><text x="519.52" y="316.67" lengthAdjust="spacingAndGlyphs" text-anchor="end" style="font-size:8.8px;font-family:&quot;Arial&quot;" textLength="313.11">Source: U.S. Census Bureau Household Pulse Survey - housing2b_week43.xlsx</text></g></svg>